# xmcd CD database file
#
# Track frame offsets:
#	150
#	17914
#	32780
#	52865
#	65346
#	81141
#	97311
#	107834
#	117554
#	147105
#	159104
#	174705
#
# Disc length: 2459 seconds
#
# Revision: 1
# Processed by: cddbd v1.5.2PL0 Copyright (c) Steve Scherf et al.
# Submitted via: CDex 1.70beta2
#
DISCID=9e09990c
DTITLE=Walter Maassens Borderland Jazzband - On the road - 25 Jahre
DYEAR=1985
DGENRE=Jazz
TTITLE0=On the road to home sweet home
TTITLE1=I get the blues when it rains
TTITLE2=Let me call you sweetheart
TTITLE3=Buddy Boldens blues
TTITLE4=Rent party blues
TTITLE5=Exactly like you
TTITLE6=Moonlight bay
TTITLE7=There's yes! yes! in your eyes
TTITLE8=In the upper garden
TTITLE9=When I grow too old to dream
TTITLE10=Wabash blues
TTITLE11=Jamaica march
EXTD=YEAR: 1985
EXTT0=
EXTT1=
EXTT2=
EXTT3=
EXTT4=
EXTT5=
EXTT6=
EXTT7=
EXTT8=
EXTT9=
EXTT10=
EXTT11=
PLAYORDER=
